<svg id="Layer_1" data-name="Layer 1" xmlns="http://www.w3.org/2000/svg" viewBox="0 0 400 100"><defs><style>.cls-2{fill:#384648}.cls-3{fill:#9ba3a3}.cls-4{fill:#86a93d}</style></defs><path fill="#fff" d="M0 0h400v100H0z"/><path class="cls-2" d="M56.47 42.11c0 5.18 3.38 9 8.28 9a7.54 7.54 0 0 0 7.27-5l8.79 2.73C78.65 55.4 72.17 59.5 64.68 59.5c-9.79 0-17.57-7.27-17.57-17.35s7.78-17.36 17.57-17.36c7.49 0 14 4.18 16.13 10.73L72 38.15a7.63 7.63 0 0 0-7.27-5c-4.88-.04-8.26 3.77-8.26 8.96zM84.26 42.11c0-10.08 7.85-17.36 17.64-17.36s17.64 7.25 17.64 17.36-7.85 17.35-17.64 17.35-17.64-7.27-17.64-17.35zm9.36 0c0 5.11 3.39 9 8.28 9s8.21-3.89 8.21-9-3.38-9-8.21-9-8.28 3.81-8.28 9zM149.78 54.42c-1.65 2.74-5.54 5-10.29 5-9.08 0-16-7.27-16-17.35s6.84-17.36 15.91-17.36c5 0 8.86 2.31 10.52 5.12 0-1.08-.15-3.82-.15-6.27V8.19h9.36V58.6h-9.36zm-16.63-12.31c0 5 3.45 9.07 8.42 9.07s8.43-4 8.43-9.07-3.46-9-8.43-9-8.42 3.89-8.42 9zM199.53 44.84H175a7.83 7.83 0 0 0 14.19 3.24l9.72 1c-3 7.06-9.15 10.37-16.49 10.37-9.87 0-17.28-7.27-17.28-17.35s7.27-17.36 17.13-17.36c9.08 0 17.28 5.91 17.28 19.73zm-24.77-6.26h14.77a7.17 7.17 0 0 0-7.28-6 7.36 7.36 0 0 0-7.49 6zM210.69 46.93a6.27 6.27 0 1 1-6.26 6.27 6.27 6.27 0 0 1 6.26-6.27zM231.64 42.11c0 5.18 3.39 9 8.28 9a7.56 7.56 0 0 0 7.28-5l8.8 2.69c-2.16 6.56-8.64 10.66-16.13 10.66-9.79 0-17.57-7.27-17.57-17.35s7.78-17.36 17.57-17.36c7.49 0 14 4.18 16.13 10.73l-8.78 2.67a7.65 7.65 0 0 0-7.28-5c-4.94-.04-8.3 3.77-8.3 8.96zM270.81 58.6h-9.29V8.19h9.29zM278.37 46.5V25.62h9.36v19.15c0 4.54 3 6.34 6.34 6.34s6.33-1.8 6.33-6.34V25.62h9.29V46.5c0 6.91-5.47 13-15.62 13s-15.7-6.09-15.7-13zM326.61 58.6h-9.36V8.19h9.36v16.28c0 2.16-.15 4.46-.15 5.4 1.59-2.81 5.48-5.12 10.45-5.12 9.07 0 16 7.28 16 17.36s-7 17.35-16.06 17.35c-4.68 0-8.57-2.23-10.22-5zm-.22-16.49c0 5 3.46 9.07 8.43 9.07s8.42-4 8.42-9.07-3.45-9-8.42-9-8.43 3.89-8.43 9z"/><path class="cls-3" d="M63.67 92.15h2.59a8.23 8.23 0 0 1-8.2 6 9.05 9.05 0 1 1 0-18.1 8.23 8.23 0 0 1 8.2 6h-2.59A5.67 5.67 0 0 0 58 82.22c-3.9 0-6.52 3-6.52 6.9S54.12 96 58 96a5.66 5.66 0 0 0 5.67-3.85zM88.73 89.12a9.12 9.12 0 1 1-9.12-9.05 8.9 8.9 0 0 1 9.12 9.05zm-2.53 0c0-3.93-2.68-6.9-6.59-6.9s-6.58 3-6.58 6.9S75.71 96 79.61 96s6.59-2.92 6.59-6.88zM99.58 97.86h-5.27V80.38h5.27c5.71 0 9 3.56 9 8.74s-3.29 8.74-9 8.74zm-.37-15.42h-2.44V95.8h2.44c4.21 0 6.83-2.19 6.83-6.68s-2.62-6.68-6.83-6.68zM126.45 82.5h-9.8v5.43h6.21V90h-6.21v5.77h9.8v2.1h-12.27V80.38h12.27zM143 76h2.22l-7.37 21.85h-2.21zM256 76h2.21l-7.36 21.85h-2.22zM164.68 84a6.17 6.17 0 0 0-3.9-1.78c-1.9 0-3 1.09-3 2.31s.72 1.93 2.38 2.78l1.62.84c2.71 1.4 4.22 2.85 4.22 5.21 0 2.78-2.4 4.81-5.65 4.81a8.71 8.71 0 0 1-5.86-2.37l1.31-1.88a6.88 6.88 0 0 0 4.52 2.13c2.12 0 3.22-1.16 3.22-2.69 0-1.31-1.16-2.18-2.94-3.12l-1.75-.9c-2.3-1.19-3.52-2.53-3.52-4.78 0-2.4 2.12-4.49 5.4-4.49a8.23 8.23 0 0 1 5.24 2.09zM182 97.86V90h-8v7.87h-2.46V80.38H174v7.55h8v-7.55h2.46v17.48zM194 92.24l-1.75 5.62h-2.56l5.83-17.48h3l5.9 17.48h-2.65l-1.85-5.62zm.62-2.09h4.65l-2.28-7.27zM214.85 90.46H212v7.4h-2.47V80.38h5.71c3.75 0 5.93 2 5.93 5a4.84 4.84 0 0 1-3.84 4.81l4.78 7.71h-2.78zm.16-8H212v5.87h3c2.15 0 3.65-1.06 3.65-3s-1.49-2.86-3.65-2.86zM239.4 82.5h-9.79v5.43h6.21V90h-6.21v5.77h9.79v2.1h-12.26V80.38h12.26zM267.4 97.86V80.38h2.47v15.38h7.61v2.1zM294.64 82.5h-9.79v5.43h6.21V90h-6.21v5.77h9.79v2.1h-12.26V80.38h12.26zM302.85 92.24l-1.75 5.62h-2.56l5.84-17.48h3l5.9 17.48h-2.65l-1.84-5.62zm.62-2.09h4.65l-2.28-7.27zM323.75 90.46h-2.9v7.4h-2.46V80.38h5.71c3.74 0 5.92 2 5.92 5a4.84 4.84 0 0 1-3.83 4.81l4.81 7.67h-2.78zm.16-8h-3.06v5.87h3.06c2.15 0 3.65-1.06 3.65-3s-1.5-2.86-3.65-2.86zM338.42 97.86H336V80.38h3.19l7.36 14v-14H349v17.48h-3.09l-7.45-14.14z"/><path class="cls-4" d="M18.11 46.66c0 2.9-1.1 6.8-5.2 8.1 4.1 1.3 5.2 5.21 5.2 8.11v28.22h13.42V100H7.71V59.37H0v-8.91h7.71V14.63h23.82v8.91H18.11zM381.88 23.54h-13.41v-8.91h23.82v35.83H400v8.91h-7.71V100h-23.82v-8.91h13.41V62.87c0-2.9 1.11-6.81 5.21-8.11-4.1-1.3-5.21-5.2-5.21-8.1z"/></svg>