<svg width="43" height="32" xmlns="http://www.w3.org/2000/svg"><g fill-rule="nonzero" fill="none"><path d="M40.196 0H2.804A2.814 2.814 0 0 0 0 2.824v26.352A2.814 2.814 0 0 0 2.804 32h37.392A2.814 2.814 0 0 0 43 29.176V2.824A2.814 2.814 0 0 0 40.196 0z" fill="#E6E6E6"/><path d="M27.382 11.485h-2.618c-.178 0-.33.131-.359.309l-1.058 6.758a.22.22 0 0 0 .216.254h1.343a.256.256 0 0 0 .252-.217l.3-1.916a.364.364 0 0 1 .359-.309h.828c1.724 0 2.72-.84 2.98-2.505.116-.729.004-1.3-.335-1.7-.372-.44-1.032-.674-1.908-.674zm.302 2.469c-.143.946-.861.946-1.555.946h-.394l.276-1.767a.22.22 0 0 1 .216-.185c.575 0 1.08-.024 1.33.27.138.164.179.404.127.736z" fill="#009EE3"/><path d="M8.712 11.485H6.095c-.179 0-.331.131-.36.309l-1.057 6.758a.22.22 0 0 0 .216.254h1.25c.178 0 .33-.131.358-.31l.286-1.822a.364.364 0 0 1 .36-.309h.828c1.723 0 2.719-.84 2.979-2.505.117-.729.004-1.3-.334-1.7-.374-.441-1.033-.675-1.909-.675zm.302 2.469c-.143.946-.86.946-1.554.946h-.396l.277-1.767a.22.22 0 0 1 .216-.185h.181c.472 0 .919 0 1.149.27.137.164.18.404.127.736zM16.536 13.924h-1.253a.22.22 0 0 0-.216.185l-.055.353c-.122-.178-.364-.657-1.569-.657-1.384 0-2.568 1.057-2.798 2.539-.12.738.05 1.445.467 1.938.382.453.928.642 1.579.642 1.116 0 1.735-.722 1.735-.722l-.057.351a.22.22 0 0 0 .216.255h1.13c.178 0 .33-.131.359-.31l.677-4.32a.22.22 0 0 0-.215-.254zM14.79 16.38c-.12.721-.69 1.205-1.414 1.205-.364 0-.654-.118-.841-.34-.186-.222-.256-.536-.197-.887.113-.715.691-1.214 1.405-1.214.356 0 .645.118.836.343.19.227.266.544.211.893z" fill="#113984"/><path d="M35.206 13.924h-1.254a.22.22 0 0 0-.216.185l-.055.353c-.121-.178-.363-.657-1.568-.657-1.385 0-2.568 1.057-2.798 2.539-.12.738.05 1.445.466 1.938.383.453.928.642 1.58.642 1.115 0 1.734-.722 1.734-.722l-.056.351a.22.22 0 0 0 .216.255h1.13c.178 0 .33-.131.358-.31l.678-4.32a.22.22 0 0 0-.215-.254zm-1.747 2.456c-.122.721-.69 1.205-1.415 1.205-.363 0-.654-.118-.841-.34-.185-.222-.255-.536-.196-.887.113-.715.69-1.214 1.405-1.214.356 0 .645.118.835.343.191.227.267.544.212.893z" fill="#009EE3"/><path d="M23.212 13.924h-1.26c-.121 0-.233.06-.302.16l-1.737 2.578-.737-2.477a.364.364 0 0 0-.349-.261H17.59a.22.22 0 0 0-.207.29l1.387 4.1-1.304 1.854a.22.22 0 0 0 .177.347H18.9c.12 0 .231-.06.3-.157l4.19-6.089a.219.219 0 0 0-.178-.345z" fill="#113984"/><path d="M36.683 11.672l-1.074 6.881a.22.22 0 0 0 .216.255h1.08c.179 0 .331-.131.36-.31l1.058-6.757a.22.22 0 0 0-.216-.254h-1.21a.216.216 0 0 0-.214.185z" fill="#009EE3"/></g></svg>