<svg width="43" height="32" xmlns="http://www.w3.org/2000/svg"><g fill-rule="nonzero" fill="none"><path d="M40.196 0H2.804A2.814 2.814 0 0 0 0 2.824v26.352A2.814 2.814 0 0 0 2.804 32h37.392A2.814 2.814 0 0 0 43 29.176V2.824A2.814 2.814 0 0 0 40.196 0z" fill="#E6E6E6"/><circle fill="#F99400" cx="21.647" cy="16" r="11.294"/><path d="M26.625 14.39c.225-1.502-.92-2.31-2.485-2.85l.508-2.035-1.24-.309-.494 1.982a49.51 49.51 0 0 0-.993-.233l.498-1.995-1.239-.31-.508 2.036c-.27-.061-.535-.123-.792-.187l.001-.006-1.709-.427-.33 1.324s.92.21.9.224c.502.125.594.457.578.72l-1.39 5.578c-.062.153-.218.381-.568.295.012.018-.9-.225-.9-.225l-.616 1.418 1.613.402c.3.075.594.154.884.228l-.513 2.06 1.237.308.509-2.038c.337.091.666.177.987.256l-.507 2.028 1.24.31.513-2.056c2.113.4 3.703.239 4.372-1.673.539-1.539-.028-2.426-1.14-3.005.812-.186 1.422-.72 1.584-1.82zm-2.831 3.971c-.383 1.54-2.974.707-3.815.5l.68-2.73c.841.21 3.535.626 3.135 2.23zm.383-3.992c-.35 1.4-2.506.689-3.206.514l.618-2.475c.699.175 2.952.5 2.588 1.96z" fill="#FFF"/></g></svg>