<svg width="43" height="32" xmlns="http://www.w3.org/2000/svg"><g fill-rule="nonzero" fill="none"><rect fill="#1A1876" width="43" height="32" rx="3"/><path fill="#FFF" d="M17.049 20.518h2.438l1.527-9.013h-2.44zM25.934 15.124c-.853-.417-1.375-.696-1.37-1.117 0-.377.442-.776 1.402-.776a4.38 4.38 0 0 1 2.045.449l.33-1.953a6.267 6.267 0 0 0-2.187-.376c-2.41 0-4.113 1.223-4.123 2.974-.013 1.295 1.215 2.018 2.138 2.447.95.441 1.27.723 1.265 1.117-.007.604-.759.88-1.46.88a5.313 5.313 0 0 1-2.611-.616l-.343 2.017a7.66 7.66 0 0 0 2.718.481c2.565 0 4.23-1.208 4.248-3.078.005-1.026-.645-1.806-2.052-2.45zM34.593 11.513h-1.885a1.214 1.214 0 0 0-1.278.748l-3.623 8.257h2.562s.419-1.11.513-1.355h3.125c.073.317.298 1.35.298 1.35h2.264l-1.976-9zm-3.008 5.81c.101-.26 1.097-2.835 1.296-3.38.329 1.553.008.047.73 3.38h-2.026zM15.002 11.512l-2.389 6.145-.254-1.249-.856-4.14c-.128-.497-.6-.822-1.106-.762H6.462l-.03.188c.894.213 1.756.545 2.562.99l2.17 7.827h2.581l3.841-8.996-2.584-.003z"/></g></svg>