<svg width="43" height="32" xmlns="http://www.w3.org/2000/svg"><g fill-rule="nonzero" fill="none"><path fill="#E6E6E6" d="M0 6.588h43V24.47H0z"/><path d="M2.804 32h37.392A2.814 2.814 0 0 0 43 29.176v-4.705H0v4.705A2.814 2.814 0 0 0 2.804 32z" fill="#E79800"/><path d="M40.196 0H2.804A2.814 2.814 0 0 0 0 2.824v4.705h43V2.824A2.814 2.814 0 0 0 40.196 0zM17.049 20.518h2.438l1.527-9.013h-2.44zM25.934 15.124c-.853-.417-1.375-.696-1.37-1.117 0-.375.442-.776 1.398-.776a4.387 4.387 0 0 1 2.045.449l.33-1.954a6.261 6.261 0 0 0-2.186-.378c-2.41 0-4.109 1.222-4.123 2.974-.014 1.295 1.213 2.018 2.138 2.449.95.441 1.27.724 1.265 1.118-.006.604-.758.88-1.46.88-1.083 0-1.629-.169-2.611-.617l-.342 2.018c.57.252 1.623.47 2.718.481 2.565 0 4.23-1.208 4.249-3.08.006-1.024-.644-1.804-2.051-2.447zM34.593 11.513h-1.885c-.584 0-1.02.161-1.278.748l-3.623 8.26h2.562s.419-1.111.514-1.355l3.125.004c.073.315.298 1.35.298 1.35h2.264l-1.977-9.007zm-3.008 5.81c.101-.26 1.097-2.834 1.296-3.38.33 1.554.008.047.73 3.38h-2.026zM15.002 11.512l-2.389 6.145-.254-1.249-.856-4.142c-.147-.57-.575-.74-1.105-.76H6.462l-.03.187c.957.234 1.812.57 2.562.988l2.17 7.828 2.582-.003 3.841-8.995h-2.585z" fill="#1A1876"/></g></svg>