<svg width="43" height="32" xmlns="http://www.w3.org/2000/svg"><g fill-rule="nonzero" fill="none"><path d="M40.196 0H2.804A2.814 2.814 0 0 0 0 2.824v26.352A2.814 2.814 0 0 0 2.804 32h37.392A2.814 2.814 0 0 0 43 29.176V2.824A2.814 2.814 0 0 0 40.196 0z" fill="#002E64"/><path d="M25.726 19.28c-1.969 1.452-4.822 2.225-7.28 2.225-3.445 0-6.546-1.273-8.893-3.393-.185-.167-.02-.393.201-.264 2.533 1.473 5.664 2.36 8.9 2.36a17.7 17.7 0 0 0 6.787-1.388c.332-.141.61.22.285.46z" fill="#FE9B00"/><path d="M26.545 18.344c-.252-.322-1.665-.152-2.3-.077-.191.023-.221-.145-.048-.266 1.126-.792 2.973-.563 3.187-.298.217.267-.056 2.118-1.112 3.002-.163.135-.317.063-.245-.116.238-.594.77-1.923.518-2.245z" fill="#FE9B00"/><path d="M24.29 12.41v-.77a.19.19 0 0 1 .196-.194h3.446c.11 0 .199.08.199.194v.66c-.001.11-.094.254-.26.483l-1.785 2.55c.662-.016 1.363.083 1.966.422.136.076.173.189.183.3v.82c0 .113-.123.244-.254.176-1.06-.555-2.469-.616-3.642.007-.12.064-.246-.065-.246-.178v-.78c0-.125.002-.338.128-.53l2.069-2.967h-1.802a.192.192 0 0 1-.197-.194zM11.718 17.213h-1.049a.197.197 0 0 1-.187-.177v-5.382c0-.108.091-.194.203-.194h.977a.198.198 0 0 1 .191.18v.704h.02c.254-.68.734-.997 1.38-.997.656 0 1.067.317 1.36.997.255-.68.833-.997 1.45-.997.44 0 .92.181 1.213.589.333.453.265 1.11.265 1.688l-.001 3.396c0 .108-.09.194-.203.194H16.29a.197.197 0 0 1-.188-.193v-2.853c0-.227.02-.793-.03-1.008-.078-.363-.313-.464-.616-.464a.698.698 0 0 0-.627.44c-.107.273-.098.726-.098 1.032v2.852c0 .108-.09.194-.202.194H13.48a.197.197 0 0 1-.188-.193v-2.853c0-.6.097-1.484-.646-1.484-.754 0-.725.861-.725 1.484v2.852a.201.201 0 0 1-.204.193zM31.1 11.346c-1.518 0-2.36 1.302-2.36 2.979 0 1.665.832 3.001 2.36 3.001 1.468 0 2.397-1.302 2.397-2.945 0-1.699-.842-3.035-2.398-3.035zm0 4.87c-.823 0-.813-1.404-.813-2.06 0-.658.049-1.71.823-1.71.332 0 .567.146.685.52.137.43.156.975.156 1.427 0 .69-.04 1.823-.852 1.823zM35.515 17.213h-1.044a.197.197 0 0 1-.189-.193l-.002-5.384a.198.198 0 0 1 .202-.176h.973a.2.2 0 0 1 .186.15v.824h.02c.294-.736.705-1.087 1.429-1.087.47 0 .93.17 1.223.634.275.43.275 1.155.275 1.675v3.387a.2.2 0 0 1-.201.17h-1.051a.197.197 0 0 1-.187-.17V14.12c0-.589.069-1.449-.656-1.449-.255 0-.49.17-.607.43-.147.329-.166.657-.166 1.02v2.897a.201.201 0 0 1-.205.195zM23.41 16.227c-.191-.265-.395-.48-.395-.972V13.62c0-.693.049-1.328-.462-1.805-.401-.385-1.069-.522-1.579-.522-.998 0-2.11.373-2.345 1.606-.025.13.07.2.156.22l1.016.11c.095-.006.164-.099.183-.194.088-.424.443-.63.843-.63.216 0 .461.08.589.273.146.215.127.51.127.76v.137c-.608.067-1.404.113-1.972.363-.657.284-1.118.863-1.118 1.714 0 1.09.687 1.635 1.57 1.635.745 0 1.153-.176 1.729-.763.19.276.253.41.6.699a.216.216 0 0 0 .248-.025l.003.003c.21-.186.59-.517.804-.697.086-.07.07-.183.004-.278zm-1.866-1.584c0 .408.009.749-.196 1.112-.167.296-.432.477-.726.477-.402 0-.637-.306-.637-.76 0-.893.8-1.056 1.56-1.056v.227h-.001zM9.663 16.227c-.192-.265-.396-.48-.396-.972V13.62c0-.693.049-1.328-.461-1.805-.402-.385-1.069-.522-1.579-.522-.997 0-2.112.373-2.345 1.606-.025.13.07.2.156.22l1.017.11c.095-.006.163-.099.182-.194.088-.424.443-.63.843-.63.216 0 .462.08.589.273.147.215.127.51.127.76v.137c-.608.067-1.403.113-1.972.363-.657.284-1.118.863-1.118 1.714 0 1.09.687 1.635 1.57 1.635.745 0 1.153-.176 1.729-.763.19.276.253.41.601.699a.216.216 0 0 0 .248-.025l.002.003c.21-.186.59-.517.804-.697.085-.07.07-.183.003-.278zm-1.867-1.584c0 .408.01.749-.196 1.112-.167.296-.432.477-.726.477-.402 0-.637-.306-.637-.76 0-.893.801-1.056 1.56-1.056v.227h-.001z" fill="#FFF"/></g></svg>